<svg xmlns="http://www.w3.org/2000/svg" version="1.1" xmlns:xlink="http://www.w3.org/1999/xlink" xmlns:svgjs="http://svgjs.dev/svgjs" width="1000" height="1000" viewBox="0 0 1000 1000"><rect width="1000" height="1000" fill="#000000"></rect><g transform="matrix(0.7,0,0,0.7,149.57576319300483,294.553018306759)"><svg viewBox="0 0 396 233" data-background-color="#ffffff" preserveAspectRatio="xMidYMid meet" height="588" width="1000" xmlns="http://www.w3.org/2000/svg" xmlns:xlink="http://www.w3.org/1999/xlink"><defs></defs><g id="tight-bounds" transform="matrix(1,0,0,1,0.23999694637410585,-0.19983786558512406)"><svg viewBox="0 0 395.52 233.39967573117025" height="233.39967573117025" width="395.52"><g><svg viewBox="0 0 395.52 233.39967573117025" height="233.39967573117025" width="395.52"><g transform="matrix(1,0,0,1,0,141.72241693269757)"><svg viewBox="0 0 395.52 91.67725879847269" height="91.67725879847269" width="395.52"><g><svg viewBox="0 0 395.52 91.67725879847269" height="91.67725879847269" width="395.52"><g><svg viewBox="0 0 395.52 63.64240868706811" height="63.64240868706811" width="395.52"><g transform="matrix(1,0,0,1,0,0)"><svg width="395.52" viewBox="2.1500000953674316 -38.849998474121094 303.8699951171875 48.89999771118164" height="63.64240868706811" data-palette-color="#1ebbd7"><path d="M13.8 0.5L13.8 0.5Q10.15 0.5 7.55-0.93 4.95-2.35 3.55-4.88 2.15-7.4 2.15-10.65L2.15-10.65Q2.15-13.75 3.73-16.28 5.3-18.8 7.98-20.3 10.65-21.8 13.9-21.8L13.9-21.8Q18.1-21.8 20.88-19.35 23.65-16.9 24.6-12.5L24.6-12.5 7.55-6.6 6.35-9.6 20-14.5 18.95-13.85Q18.35-15.4 17.05-16.57 15.75-17.75 13.5-17.75L13.5-17.75Q11.7-17.75 10.28-16.88 8.85-16 8.03-14.48 7.2-12.95 7.2-10.9L7.2-10.9Q7.2-8.8 8.08-7.23 8.95-5.65 10.48-4.75 12-3.85 13.9-3.85L13.9-3.85Q15.25-3.85 16.48-4.35 17.7-4.85 18.8-5.6L18.8-5.6 21.15-1.8Q19.5-0.75 17.57-0.13 15.65 0.5 13.8 0.5ZM55.2-36.3L60.55-36.3 60.55 0 55.2 0 55.2-15.65 36.8-15.65 36.8 0 31.45 0 31.45-36.3 36.8-36.3 36.8-20.75 55.2-20.75 55.2-36.3ZM79.45 0.5L79.45 0.5Q75.8 0.5 73.2-0.93 70.6-2.35 69.2-4.88 67.8-7.4 67.8-10.65L67.8-10.65Q67.8-13.75 69.37-16.28 70.95-18.8 73.62-20.3 76.3-21.8 79.55-21.8L79.55-21.8Q83.75-21.8 86.52-19.35 89.3-16.9 90.25-12.5L90.25-12.5 73.2-6.6 72-9.6 85.65-14.5 84.6-13.85Q84-15.4 82.7-16.57 81.4-17.75 79.15-17.75L79.15-17.75Q77.35-17.75 75.92-16.88 74.5-16 73.67-14.48 72.85-12.95 72.85-10.9L72.85-10.9Q72.85-8.8 73.72-7.23 74.6-5.65 76.12-4.75 77.65-3.85 79.55-3.85L79.55-3.85Q80.9-3.85 82.12-4.35 83.35-4.85 84.45-5.6L84.45-5.6 86.8-1.8Q85.15-0.75 83.22-0.13 81.3 0.5 79.45 0.5ZM104.69 0.5L104.69 0.5Q101.74 0.5 99.34-0.73 96.94-1.95 95.54-4.4 94.14-6.85 94.14-10.45L94.14-10.45Q94.14-14 95.62-16.55 97.09-19.1 99.52-20.48 101.94-21.85 104.79-21.85L104.79-21.85Q107.79-21.85 109.72-20.58 111.64-19.3 112.74-17.6L112.74-17.6 112.39-16.8 112.89-20.95 117.64-20.95 117.64 0 112.49 0 112.49-5.25 113.04-4Q112.84-3.6 112.19-2.88 111.54-2.15 110.47-1.35 109.39-0.55 107.97-0.03 106.54 0.5 104.69 0.5ZM106.09-3.7L106.09-3.7Q107.74-3.7 109.04-4.3 110.34-4.9 111.24-6 112.14-7.1 112.49-8.6L112.49-8.6 112.49-12.95Q112.09-14.35 111.14-15.38 110.19-16.4 108.87-17 107.54-17.6 105.94-17.6L105.94-17.6Q104.14-17.6 102.64-16.73 101.14-15.85 100.24-14.3 99.34-12.75 99.34-10.7L99.34-10.7Q99.34-8.75 100.27-7.15 101.19-5.55 102.74-4.63 104.29-3.7 106.09-3.7ZM125.54 0L125.54-38.85 130.69-38.85 130.69 0 125.54 0ZM140.54-20.9L140.54-30.15 145.69-30.15 145.69-20.9 151.29-20.9 151.29-16.85 145.69-16.85 145.69 0 140.54 0 140.54-16.85 136.84-16.85 136.84-20.9 140.54-20.9ZM161.99 0L156.84 0 156.84-38.85 161.84-38.85 161.84-16.2 161.79-17.05Q162.84-19.1 164.99-20.45 167.14-21.8 170.14-21.8L170.14-21.8Q173.09-21.8 175.01-20.05 176.94-18.3 176.99-15.5L176.99-15.5 176.99 0 171.84 0 171.84-13.7Q171.79-15.3 170.89-16.32 169.99-17.35 168.09-17.4L168.09-17.4Q166.39-17.4 164.99-16.38 163.59-15.35 162.79-13.58 161.99-11.8 161.99-9.55L161.99-9.55 161.99 0ZM226.43-7.55L228.68-2.75Q227.88-2.2 226.31-1.43 224.73-0.65 222.61-0.1 220.48 0.45 217.93 0.4L217.93 0.4Q213.68 0.35 210.31-1.1 206.93-2.55 204.58-5.08 202.23-7.6 200.96-10.88 199.68-14.15 199.68-17.85L199.68-17.85Q199.68-21.95 200.98-25.38 202.28-28.8 204.71-31.35 207.13-33.9 210.41-35.3 213.68-36.7 217.58-36.7L217.58-36.7Q220.93-36.7 223.63-35.8 226.33-34.9 228.18-33.7L228.18-33.7 226.08-28.7Q224.63-29.7 222.51-30.63 220.38-31.55 217.78-31.55L217.78-31.55Q215.23-31.55 212.96-30.53 210.68-29.5 208.96-27.68 207.23-25.85 206.23-23.43 205.23-21 205.23-18.15L205.23-18.15Q205.23-15.25 206.13-12.8 207.03-10.35 208.71-8.55 210.38-6.75 212.73-5.75 215.08-4.75 218.03-4.75L218.03-4.75Q220.83-4.75 222.96-5.6 225.08-6.45 226.43-7.55L226.43-7.55ZM233.73-10.7L233.73-10.7Q233.73-13.85 235.23-16.38 236.73-18.9 239.38-20.35 242.03-21.8 245.43-21.8L245.43-21.8Q248.88-21.8 251.48-20.35 254.08-18.9 255.5-16.38 256.93-13.85 256.93-10.7L256.93-10.7Q256.93-7.55 255.5-5 254.08-2.45 251.48-0.98 248.88 0.5 245.38 0.5L245.38 0.5Q242.03 0.5 239.4-0.85 236.78-2.2 235.25-4.73 233.73-7.25 233.73-10.7ZM238.93-10.65L238.93-10.65Q238.93-8.7 239.78-7.13 240.63-5.55 242.08-4.63 243.53-3.7 245.33-3.7L245.33-3.7Q247.18-3.7 248.63-4.63 250.08-5.55 250.9-7.13 251.73-8.7 251.73-10.65L251.73-10.65Q251.73-12.6 250.9-14.15 250.08-15.7 248.63-16.65 247.18-17.6 245.33-17.6L245.33-17.6Q243.48-17.6 242.03-16.65 240.58-15.7 239.75-14.13 238.93-12.55 238.93-10.65ZM263.03-20.95L267.63-20.95 268.13-14.95 267.88-15.75Q268.73-17.65 270.28-19 271.83-20.35 273.5-21.08 275.18-21.8 276.33-21.8L276.33-21.8 276.08-16.7Q273.68-16.85 271.9-15.8 270.13-14.75 269.13-13 268.13-11.25 268.13-9.25L268.13-9.25 268.13 0 263.03 0 263.03-20.95ZM294.72 0.5L294.72 0.5Q292.42 0.5 290.32-0.53 288.22-1.55 286.97-3.3L286.97-3.3 287.27-4.85 287.27 10.05 282.17 10.05 282.17-21.3 286.62-21.3 287.32-16.2 286.77-17.65Q288.32-19.45 290.6-20.65 292.87-21.85 295.67-21.85L295.67-21.85Q298.62-21.85 300.97-20.45 303.32-19.05 304.67-16.5 306.02-13.95 306.02-10.5L306.02-10.5Q306.02-7.1 304.55-4.63 303.07-2.15 300.52-0.83 297.97 0.5 294.72 0.5ZM293.72-3.55L293.72-3.55Q295.62-3.55 297.25-4.45 298.87-5.35 299.85-6.93 300.82-8.5 300.82-10.45L300.82-10.45Q300.82-12.5 299.9-14.08 298.97-15.65 297.45-16.55 295.92-17.45 294.07-17.45L294.07-17.45Q292.32-17.45 290.97-16.82 289.62-16.2 288.67-15.1 287.72-14 287.32-12.45L287.32-12.45 287.32-8.6Q287.62-7.15 288.52-6 289.42-4.85 290.77-4.2 292.12-3.55 293.72-3.55Z" opacity="1" transform="matrix(1,0,0,1,0,0)" fill="#ffffff" class="undefined-text-0" data-fill-palette-color="primary" id="text-0"></path></svg></g></svg></g><g transform="matrix(1,0,0,1,75.54432,78.6668539602764)"><svg viewBox="0 0 244.43135999999998 13.010404838196285" height="13.010404838196285" width="244.43135999999998"><g transform="matrix(1,0,0,1,0,0)"><svg width="244.43135999999998" viewBox="4.909999847412109 -36.25 690.2400512695312 36.7400016784668" height="13.010404838196285" data-palette-color="#1ebbd7"><path d="M27.54-25.29L27.54-25.29Q27.54-19.87 23.84-16.96 20.14-14.04 13.26-14.04L13.26-14.04 9.06-14.04 9.06 0 4.91 0 4.91-35.69 14.16-35.69Q27.54-35.69 27.54-25.29ZM9.06-32.1L9.06-17.6 12.79-17.6Q18.31-17.6 20.78-19.38 23.24-21.17 23.24-25.1L23.24-25.1Q23.24-28.64 20.92-30.37 18.6-32.1 13.7-32.1L13.7-32.1 9.06-32.1ZM57.81-35.69L61.96-35.69 61.96-12.6Q61.96-6.49 58.27-3 54.59 0.49 48.14 0.49L48.14 0.49Q41.7 0.49 38.17-3.03 34.64-6.54 34.64-12.7L34.64-12.7 34.64-35.69 38.79-35.69 38.79-12.4Q38.79-7.93 41.23-5.54 43.67-3.15 48.41-3.15L48.41-3.15Q52.93-3.15 55.37-5.55 57.81-7.96 57.81-12.45L57.81-12.45 57.81-35.69ZM82.39-32.01L82.39 0 78.24 0 78.24-32.01 66.94-32.01 66.94-35.69 93.7-35.69 93.7-32.01 82.39-32.01ZM110.05-32.01L110.05 0 105.9 0 105.9-32.01 94.6-32.01 94.6-35.69 121.35-35.69 121.35-32.01 110.05-32.01ZM130.87 0L126.72 0 126.72-35.69 130.87-35.69 130.87 0ZM168.54-35.69L168.54 0 163.81 0 144.3-29.96 144.1-29.96Q144.49-24.68 144.49-20.29L144.49-20.29 144.49 0 140.66 0 140.66-35.69 145.35-35.69 164.81-5.86 165-5.86Q164.95-6.52 164.78-10.1 164.61-13.67 164.66-15.21L164.66-15.21 164.66-35.69 168.54-35.69ZM194.05-14.99L194.05-18.7 206.19-18.7 206.19-1.34Q203.35-0.44 200.42 0.02 197.49 0.49 193.64 0.49L193.64 0.49Q185.53 0.49 181.02-4.33 176.5-9.16 176.5-17.85L176.5-17.85Q176.5-23.41 178.73-27.6 180.97-31.79 185.17-34 189.36-36.21 195-36.21L195-36.21Q200.72-36.21 205.65-34.11L205.65-34.11 204.04-30.44Q199.2-32.5 194.74-32.5L194.74-32.5Q188.22-32.5 184.56-28.61 180.89-24.73 180.89-17.85L180.89-17.85Q180.89-10.62 184.42-6.88 187.95-3.15 194.78-3.15L194.78-3.15Q198.5-3.15 202.04-4L202.04-4 202.04-14.99 194.05-14.99ZM227.37-35.69L236.82-17.85 246.34-35.69 250.83-35.69 238.92-13.84 238.92 0 234.72 0 234.72-13.65 222.83-35.69 227.37-35.69ZM286.72-17.9L286.72-17.9Q286.72-9.33 282.39-4.42 278.05 0.49 270.34 0.49L270.34 0.49Q262.45 0.49 258.17-4.33 253.88-9.16 253.88-17.94L253.88-17.94Q253.88-26.66 258.18-31.46 262.48-36.25 270.39-36.25L270.39-36.25Q278.08-36.25 282.4-31.37 286.72-26.49 286.72-17.9ZM258.28-17.9L258.28-17.9Q258.28-10.64 261.37-6.9 264.46-3.15 270.34-3.15L270.34-3.15Q276.27-3.15 279.3-6.88 282.33-10.62 282.33-17.9L282.33-17.9Q282.33-25.1 279.31-28.82 276.3-32.54 270.39-32.54L270.39-32.54Q264.46-32.54 261.37-28.8 258.28-25.05 258.28-17.9ZM317.48-35.69L321.63-35.69 321.63-12.6Q321.63-6.49 317.94-3 314.26 0.49 307.81 0.49L307.81 0.49Q301.37 0.49 297.84-3.03 294.31-6.54 294.31-12.7L294.31-12.7 294.31-35.69 298.46-35.69 298.46-12.4Q298.46-7.93 300.9-5.54 303.34-3.15 308.08-3.15L308.08-3.15Q312.6-3.15 315.04-5.55 317.48-7.96 317.48-12.45L317.48-12.45 317.48-35.69ZM342.67-14.84L335.23-14.84 335.23 0 331.08 0 331.08-35.69 340.87-35.69Q347.43-35.69 350.57-33.18 353.71-30.66 353.71-25.61L353.71-25.61Q353.71-18.53 346.53-16.04L346.53-16.04 356.22 0 351.32 0 342.67-14.84ZM335.23-32.06L335.23-18.41 340.91-18.41Q345.31-18.41 347.36-20.15 349.41-21.9 349.41-25.39L349.41-25.39Q349.41-28.93 347.32-30.49 345.24-32.06 340.62-32.06L340.62-32.06 335.23-32.06ZM402.07-35.69L402.07 0 397.92 0 397.92-16.8 379.12-16.8 379.12 0 374.97 0 374.97-35.69 379.12-35.69 379.12-20.51 397.92-20.51 397.92-35.69 402.07-35.69ZM431.75-3.71L431.75 0 411.85 0 411.85-35.69 431.75-35.69 431.75-32.01 416.01-32.01 416.01-20.51 430.8-20.51 430.8-16.85 416.01-16.85 416.01-3.71 431.75-3.71ZM466.39 0L462.1 0 457.65-11.35 443.35-11.35 438.95 0 434.75 0 448.86-35.84 452.36-35.84 466.39 0ZM444.81-15.09L456.36-15.09 452.21-26.15Q451.4-28.25 450.55-31.3L450.55-31.3Q450.01-28.96 449.01-26.15L449.01-26.15 444.81-15.09ZM491.2 0L471.3 0 471.3-35.69 475.45-35.69 475.45-3.76 491.2-3.76 491.2 0ZM508.23-32.01L508.23 0 504.08 0 504.08-32.01 492.78-32.01 492.78-35.69 519.54-35.69 519.54-32.01 508.23-32.01ZM552.01-35.69L552.01 0 547.86 0 547.86-16.8 529.06-16.8 529.06 0 524.91 0 524.91-35.69 529.06-35.69 529.06-20.51 547.86-20.51 547.86-35.69 552.01-35.69ZM578.93-15.26L578.93 0 574.78 0 574.78-35.69 594.68-35.69 594.68-32.01 578.93-32.01 578.93-18.95 593.72-18.95 593.72-15.26 578.93-15.26ZM604.73 0L600.58 0 600.58-35.69 604.73-35.69 604.73 0ZM626.12-14.84L618.67-14.84 618.67 0 614.52 0 614.52-35.69 624.31-35.69Q630.88-35.69 634.01-33.18 637.15-30.66 637.15-25.61L637.15-25.61Q637.15-18.53 629.97-16.04L629.97-16.04 639.67 0 634.76 0 626.12-14.84ZM618.67-32.06L618.67-18.41 624.36-18.41Q628.75-18.41 630.8-20.15 632.86-21.9 632.86-25.39L632.86-25.39Q632.86-28.93 630.77-30.49 628.68-32.06 624.07-32.06L624.07-32.06 618.67-32.06ZM665.57-9.5L665.57-9.5Q665.57-4.79 662.15-2.15 658.73 0.49 652.87 0.49L652.87 0.49Q646.52 0.49 643.11-1.15L643.11-1.15 643.11-5.15Q645.3-4.22 647.89-3.69 650.48-3.15 653.02-3.15L653.02-3.15Q657.17-3.15 659.27-4.72 661.37-6.3 661.37-9.11L661.37-9.11Q661.37-10.96 660.62-12.15 659.88-13.33 658.13-14.33 656.39-15.33 652.82-16.6L652.82-16.6Q647.84-18.38 645.71-20.83 643.57-23.27 643.57-27.2L643.57-27.2Q643.57-31.32 646.67-33.76 649.77-36.21 654.87-36.21L654.87-36.21Q660.2-36.21 664.66-34.25L664.66-34.25 663.37-30.64Q658.95-32.5 654.78-32.5L654.78-32.5Q651.48-32.5 649.63-31.08 647.77-29.66 647.77-27.15L647.77-27.15Q647.77-25.29 648.45-24.11 649.14-22.92 650.76-21.94 652.38-20.95 655.73-19.75L655.73-19.75Q661.34-17.75 663.46-15.45 665.57-13.16 665.57-9.5ZM683.85-32.01L683.85 0 679.7 0 679.7-32.01 668.4-32.01 668.4-35.69 695.15-35.69 695.15-32.01 683.85-32.01Z" opacity="1" transform="matrix(1,0,0,1,0,0)" fill="#ffffff" class="undefined-text-1" data-fill-palette-color="secondary" id="text-1"></path></svg></g></svg></g></svg></g></svg></g><g transform="matrix(1,0,0,1,134.3062730424291,0)"><svg viewBox="0 0 126.90745391514182 126.69797165948927" height="126.69797165948927" width="126.90745391514182"><g><svg xmlns="http://www.w3.org/2000/svg" xmlns:xlink="http://www.w3.org/1999/xlink" version="1.1" x="0" y="0" viewBox="0 0.20499849319458008 99.95999908447266 99.79499816894531" enable-background="new 0 0 100 100" xml:space="preserve" height="126.69797165948927" width="126.90745391514182" class="icon-icon-0" data-fill-palette-color="accent" id="icon-0"><g fill="#1ebbd7" data-fill-palette-color="accent"><circle cx="49.98" cy="50.02" r="8.3" fill="#ffffff" data-fill-palette-color="accent"></circle><path d="M57.492 7.246c0 3.889-3.152 26.404-7.041 26.404-3.888 0-7.041-22.516-7.041-26.404s3.153-7.041 7.041-7.041C54.34 0.205 57.492 3.357 57.492 7.246z" fill="#ffffff" data-fill-palette-color="accent"></path><path d="M43.41 92.958c0-3.889 3.153-26.403 7.041-26.403 3.889 0 7.041 22.515 7.041 26.403S54.34 100 50.451 100C46.563 100 43.41 96.847 43.41 92.958z" fill="#ffffff" data-fill-palette-color="accent"></path><path d="M85.757 24.872c-2.791 2.707-21.142 16.131-23.849 13.341-2.708-2.79 11.248-20.736 14.038-23.445 2.79-2.707 7.249-2.643 9.956 0.148C88.612 17.705 88.546 22.163 85.757 24.872z" fill="#ffffff" data-fill-palette-color="accent"></path><path d="M14.773 75.181c2.79-2.708 21.14-16.129 23.849-13.342 2.707 2.792-11.249 20.736-14.039 23.445-2.789 2.71-7.247 2.645-9.955-0.146C11.919 82.348 11.985 77.892 14.773 75.181z" fill="#ffffff" data-fill-palette-color="accent"></path><path d="M74.163 86.315c-2.63-2.866-15.548-21.574-12.685-24.207C64.342 59.479 81.9 73.92 84.53 76.785c2.633 2.861 2.445 7.316-0.416 9.947C81.25 89.364 76.797 89.177 74.163 86.315z" fill="#ffffff" data-fill-palette-color="accent"></path><path d="M24.717 14.668c2.716 2.781 16.189 21.094 13.407 23.809-2.781 2.717-20.767-11.188-23.483-13.973-2.717-2.779-2.664-7.239 0.12-9.957C17.542 11.832 22.002 11.885 24.717 14.668z" fill="#ffffff" data-fill-palette-color="accent"></path><path d="M7.041 42.756c3.89 0 26.403 3.154 26.403 7.042 0 3.889-22.514 7.042-26.403 7.042C3.153 56.84 0 53.687 0 49.798 0 45.91 3.153 42.756 7.041 42.756z" fill="#ffffff" data-fill-palette-color="accent"></path><path d="M92.918 57.059c-3.889 0-26.402-3.15-26.402-7.039s22.514-7.041 26.402-7.041c3.89 0 7.042 3.152 7.042 7.041S96.808 57.059 92.918 57.059z" fill="#ffffff" data-fill-palette-color="accent"></path></g></svg></g></svg></g><g></g></svg></g></svg><rect width="395.52" height="233.39967573117025" fill="none" stroke="none" visibility="hidden"></rect></g></svg></g></svg>